<svg width="36" height="33" viewBox="0 0 36 33" fill="none" xmlns="http://www.w3.org/2000/svg">
<g clip-path="url(#clip0_482_1215)">
<mask id="mask0_482_1215" style="mask-type:luminance" maskUnits="userSpaceOnUse" x="0" y="0" width="36" height="33">
<path d="M36 0H0V33H36V0Z" fill="white"/>
</mask>
<g mask="url(#mask0_482_1215)">
<path fill-rule="evenodd" clip-rule="evenodd" d="M-0.595215 16.6157V33.6169H18.037H36.6693V16.6157V-0.385434H18.037H-0.595215V16.6157ZM-0.520835 16.6157V33.6172L18.0556 33.5978L36.6321 33.5784V16.6157V-0.346882L18.0556 -0.366312L-0.520835 -0.385742V16.6157ZM16.9213 1.49958C14.4455 1.90082 12.3914 3.4522 11.2505 5.78279C10.6186 7.07372 10.3196 8.78363 10.4854 10.1595C10.5826 10.9663 10.9101 12.1371 11.2131 12.7606C12.2244 14.8421 14.0041 16.3387 16.1775 16.9355C17.526 17.3057 19.5208 17.1931 20.7464 16.6774C22.4847 15.9462 24.0065 14.5289 24.7868 12.9148C25.0473 12.3757 25.3519 11.4733 25.4887 10.8343C25.6408 10.1244 25.6387 8.47561 25.485 7.74174C25.0445 5.63946 23.8678 3.83163 22.2142 2.7168C20.5918 1.62294 18.7599 1.20173 16.9213 1.49958ZM17.0701 2.30746C15.4918 2.57323 14.0896 3.4209 13.1971 4.64884C11.4221 7.09092 11.2974 10.9255 12.9091 13.5082C14.1049 15.4244 16.0757 16.4429 18.3498 16.3199C19.6051 16.252 20.5718 15.9411 21.4523 15.3222C22.9793 14.2488 23.9116 12.6479 24.2118 10.584C24.353 9.61249 24.3509 8.84076 24.2046 7.93596C23.9447 6.32852 23.3523 5.08586 22.3511 4.04798C21.5472 3.21473 20.7598 2.75165 19.5945 2.42705C19.0851 2.28518 17.6158 2.21555 17.0701 2.30746ZM17.2602 2.50816C17.0375 2.573 16.7493 2.70986 16.6198 2.81225C16.3183 3.05065 15.9565 3.63563 15.7781 4.17312C15.4641 5.11909 15.4337 5.57885 15.4345 9.36807C15.4353 13.357 15.4705 13.7564 15.9098 14.7607C16.3385 15.741 16.8499 16.1054 17.8913 16.1727C19.3396 16.2664 20.1016 15.5633 20.5029 13.7629C20.6271 13.2056 20.6402 12.7665 20.6395 9.21387C20.6387 5.43259 20.5659 5.32017 20.4799 4.70312C20.15 3.50109 19.758 2.89768 19.12 2.60947C18.6681 2.40538 17.7794 2.35696 17.2602 2.50816ZM15.5432 20.5342C14.7498 20.7169 14.0046 21.3373 13.6279 22.1286C13.4513 22.4995 13.426 22.6444 13.4257 23.2851C13.4255 23.8968 13.454 24.0777 13.5988 24.3824C13.8741 24.9619 14.3783 25.4853 14.9349 25.7693C15.384 25.9985 15.4936 26.0223 16.1016 26.0223C16.6792 26.0223 16.8295 25.9934 17.1816 25.8146C17.4066 25.7004 17.6801 25.527 17.7893 25.4291L17.988 25.2512L17.6587 24.9563L17.3295 24.6614L16.8718 24.8985C16.1385 25.2784 15.4706 25.1975 14.909 24.6609C14.425 24.1984 14.2526 23.7731 14.3 23.1594C14.4074 21.7732 15.7322 21.0242 16.9498 21.6614L17.3831 21.8882L17.6543 21.6004C17.8035 21.4421 17.9254 21.2875 17.9254 21.2569C17.9254 21.1692 17.1715 20.6949 16.8841 20.6019C16.4425 20.459 15.9726 20.4353 15.5432 20.5342ZM20.9092 20.5177C20.0919 20.6617 19.2962 21.3255 18.9058 22.1889C18.7384 22.559 18.7065 22.7348 18.7068 23.2851C18.7072 23.8456 18.7373 24.004 18.9148 24.3794C19.4901 25.5963 20.5685 26.2227 21.7897 26.0496C22.6578 25.9266 23.4448 25.32 23.8522 24.4601C24.0379 24.0681 24.0618 23.9331 24.0618 23.2778C24.0618 22.5845 24.0454 22.5047 23.8015 22.0086C23.2616 20.9108 22.0939 20.3089 20.9092 20.5177ZM25.3785 20.9142L25.4007 21.3961H26.8017H28.2027L28.3823 21.6125C28.6338 21.9155 28.632 22.4189 28.3785 22.6658C28.2034 22.8362 28.1315 22.846 26.7759 22.8828L25.3567 22.9214L25.3786 23.3538L25.4007 23.7863L26.4048 23.8084L27.4089 23.8305L27.9779 24.9264L28.5469 26.0223L29.0378 26.0451C29.3078 26.0576 29.5288 26.0454 29.5288 26.018C29.5288 25.9645 28.78 24.4845 28.5516 24.0866L28.4142 23.8471L28.7739 23.6154C29.2623 23.3006 29.4879 22.824 29.4774 22.1293C29.4681 21.5108 29.3186 21.135 28.96 20.8286C28.5792 20.5033 28.1671 20.4323 26.6579 20.4323H25.3564L25.3785 20.9142ZM30.8676 20.8799V21.3431L32.2755 21.3696C33.5669 21.3939 33.7007 21.4095 33.8932 21.5579C34.1115 21.7263 34.1937 22.0519 34.1075 22.4077C34.022 22.7611 33.7469 22.8225 32.2473 22.8225H30.8676V24.4417V26.0608H31.3139H31.7602V24.9112V23.7615L32.8945 23.7341C33.901 23.7097 34.0647 23.6868 34.3478 23.5313C34.907 23.2241 35.1862 22.4698 35.0298 21.6889C34.9338 21.2097 34.6895 20.8775 34.2611 20.6435C33.981 20.4905 33.8202 20.4733 32.411 20.4464L30.8676 20.4167V20.8799ZM2.88905 20.6132C1.90143 20.9922 1.23721 21.7971 1.05119 22.8402C0.841884 24.0137 1.49985 25.2874 2.58855 25.8164C2.95919 25.9965 3.10535 26.0223 3.75602 26.0223C4.46212 26.0223 4.5237 26.0089 4.97036 25.7578C5.50693 25.4563 5.86604 25.0588 6.15731 24.444C6.3362 24.0664 6.35933 23.9293 6.35933 23.2466C6.35933 22.5159 6.34609 22.4503 6.10651 21.9923C5.61084 21.0448 4.85105 20.5644 3.79321 20.5296C3.39707 20.5166 3.05945 20.5478 2.88905 20.6132ZM7.66098 23.2851C7.66098 24.8118 7.6737 26.0608 7.68925 26.0608C7.70479 26.0608 7.91395 25.9028 8.15412 25.7095L8.59074 25.3583L8.62793 24.0377L8.66512 22.7173L10.4422 24.3505C11.4196 25.2488 12.2479 25.9837 12.2831 25.9837C12.3182 25.9837 12.3469 24.752 12.3469 23.2466C12.3469 21.7411 12.325 20.5094 12.2981 20.5094C12.2301 20.5094 11.7775 20.8729 11.601 21.0693C11.4668 21.2186 11.4544 21.3456 11.4544 22.5672C11.4544 23.3171 11.4247 23.9019 11.3867 23.9019C11.3495 23.9019 10.5211 23.1394 9.54578 22.2074C8.5705 21.2754 7.74741 20.512 7.71677 20.5111C7.68612 20.5102 7.66098 21.7585 7.66098 23.2851ZM3.28341 21.4789C2.40498 21.7236 1.93371 22.3654 1.93371 23.3172C1.93371 24.2703 2.64583 25.0514 3.5784 25.1213C4.16705 25.1654 4.58678 24.9943 4.98307 24.5486C5.36539 24.1187 5.50493 23.784 5.50069 23.3069C5.49429 22.5833 5.14917 21.9778 4.55591 21.6492C4.08538 21.3885 3.76294 21.3454 3.28341 21.4789ZM21.0494 21.4441C20.3822 21.5754 19.6965 22.3141 19.5959 23.0099C19.4913 23.7327 19.9404 24.5875 20.6145 24.9489C20.9662 25.1374 21.6922 25.1774 22.0322 25.0269C22.7464 24.7107 23.1637 24.0683 23.1637 23.2851C23.1637 22.1014 22.1583 21.2259 21.0494 21.4441ZM7.0045 27.5014C6.8785 27.7444 6.88959 28.6548 7.01908 28.7064C7.14642 28.757 7.24483 27.9151 7.15267 27.5643C7.09302 27.3375 7.09012 27.3363 7.0045 27.5014ZM28.599 27.4487C28.5693 27.4985 28.5785 27.5739 28.6194 27.6163C28.669 27.6677 28.7118 27.6633 28.7478 27.6029C28.7774 27.5531 28.7683 27.4777 28.7274 27.4353C28.6778 27.3838 28.635 27.3883 28.599 27.4487ZM2.37999 27.5258C2.37999 27.5682 2.41346 27.6029 2.45437 27.6029C2.49528 27.6029 2.52875 27.5682 2.52875 27.5258C2.52875 27.4834 2.49528 27.4487 2.45437 27.4487C2.41346 27.4487 2.37999 27.4834 2.37999 27.5258ZM4.49492 27.7187C4.43876 28.0288 4.49663 28.4233 4.62092 28.5786C4.66659 28.6357 4.78842 28.6823 4.89166 28.6823H5.0794L4.88259 28.4933C4.64695 28.2668 4.62322 27.9909 4.83454 27.9337C5.02986 27.8807 5.01803 27.8308 4.75986 27.6196L4.54468 27.4435L4.49492 27.7187ZM7.78609 27.4989C7.7106 27.5771 7.72473 28.5893 7.80193 28.6388C7.90205 28.7029 7.95865 28.4847 7.95739 28.0399C7.9562 27.6398 7.88063 27.401 7.78609 27.4989ZM8.47917 27.5258C8.47917 27.5682 8.52937 27.6029 8.59074 27.6029C8.6521 27.6029 8.70231 27.5682 8.70231 27.5258C8.70231 27.4834 8.6521 27.4487 8.59074 27.4487C8.52937 27.4487 8.47917 27.4834 8.47917 27.5258ZM17.3304 28.0565C17.3304 28.6066 17.3451 28.6683 17.4846 28.7061C17.7425 28.7761 18.1491 28.6712 18.2304 28.5138C18.3836 28.217 18.2822 27.9609 17.9452 27.793C17.772 27.7067 17.5896 27.594 17.5399 27.5424C17.3668 27.363 17.3304 27.4523 17.3304 28.0565ZM30.0138 27.601C29.9389 27.6868 29.8233 27.7571 29.757 27.7571C29.5338 27.7571 29.3056 27.9872 29.3056 28.2122C29.3056 28.5091 29.5237 28.6869 29.9105 28.7054L30.2354 28.7209L30.2575 28.1501C30.2821 27.5138 30.2174 27.368 30.0138 27.601ZM8.5705 27.8098C8.45752 28.0182 8.45016 28.6546 8.56002 28.725C8.71383 28.8236 8.76122 28.6417 8.71168 28.1426C8.66712 27.6942 8.65225 27.6592 8.5705 27.8098ZM19.4067 27.9756L19.2915 28.2583L19.1644 28.0077C19.0339 27.7502 18.8924 27.6751 18.8924 27.863C18.8924 27.9213 18.9426 28.1165 19.004 28.2968C19.1477 28.7191 19.1483 28.7152 18.9296 28.8365C18.8273 28.8933 18.7436 28.9685 18.7436 29.0038C18.7436 29.0836 19.0472 29.086 19.1669 29.0071C19.2909 28.9254 19.6346 28.1391 19.6354 27.9351C19.6366 27.656 19.5292 27.6751 19.4067 27.9756ZM27.6862 27.765C27.437 27.8616 27.4026 28.0461 27.5943 28.2576L27.7613 28.4418L27.515 28.508L27.2686 28.5742L27.5062 28.6762C27.6961 28.7577 27.7662 28.759 27.8553 28.6822C27.9991 28.5586 27.9985 28.2659 27.8544 28.1419C27.7548 28.0562 27.7546 28.0354 27.853 27.9589C28.0171 27.8315 27.8915 27.6853 27.6862 27.765ZM2.37999 28.2197C2.37999 28.6624 2.46203 28.8195 2.55798 28.5603C2.65907 28.2872 2.58543 27.7571 2.44641 27.7571C2.40989 27.7571 2.37999 27.9653 2.37999 28.2197ZM3.12379 28.2261C3.12379 28.7425 3.26556 28.8368 3.35564 28.3803C3.38301 28.2417 3.43946 28.0929 3.48126 28.0496C3.58867 27.9383 3.71869 28.0439 3.71988 28.2435C3.7204 28.3364 3.74182 28.4935 3.76733 28.5925C3.8281 28.8277 3.93922 28.6617 3.94086 28.3333C3.94264 27.959 3.75907 27.7571 3.41707 27.7571H3.12379V28.2261ZM5.63033 27.8943C5.4989 28.0449 5.46536 28.3458 5.56242 28.504C5.66231 28.6669 6.01949 28.7677 6.1803 28.6785C6.37644 28.5697 6.29068 28.451 6.01584 28.451C5.88605 28.451 5.81189 28.4188 5.83867 28.3739C5.86396 28.3315 6.01964 28.2968 6.18461 28.2968H6.48459L6.34393 28.0462C6.17264 27.7409 5.82826 27.6677 5.63033 27.8943ZM9.42045 27.8981C9.12568 28.2357 9.36072 28.7511 9.816 28.7653C9.98365 28.7705 9.97584 28.7819 9.74363 28.8711L9.4833 28.971L9.69662 29.0745C9.89574 29.1711 9.92162 29.1638 10.0871 28.9644C10.2341 28.7872 10.2643 28.6663 10.2643 28.2539V27.7571H9.90392C9.64924 27.7571 9.50747 27.7984 9.42045 27.8981ZM10.9337 27.9113C10.8519 27.9961 10.785 28.1272 10.785 28.2025C10.785 28.5574 11.2449 28.8398 11.5486 28.6713C11.7334 28.5688 11.6386 28.451 11.3712 28.451C11.2414 28.451 11.1673 28.4188 11.194 28.3739C11.2193 28.3315 11.3575 28.2968 11.5009 28.2968C11.7367 28.2968 11.7571 28.2801 11.7122 28.1233C11.6051 27.7497 11.1969 27.6385 10.9337 27.9113ZM12.2876 28.239C12.3133 28.798 12.4298 28.8478 12.5223 28.3393C12.605 27.8852 12.7517 27.8902 12.8637 28.351C12.929 28.6203 12.9693 28.6848 13.0201 28.6016C13.1283 28.4243 13.1019 28.011 12.9739 27.8782C12.9068 27.8087 12.7309 27.7571 12.5612 27.7571H12.2655L12.2876 28.239ZM13.7556 27.916C13.5527 28.1263 13.5935 28.4319 13.851 28.6303C14.0208 28.761 14.0837 28.7719 14.2415 28.6974C14.4998 28.5754 14.4772 28.4655 14.1878 28.4366C14.0062 28.4185 13.9405 28.3712 13.9233 28.2465C13.904 28.1064 13.9482 28.0722 14.2065 28.0269C14.4851 27.9781 14.5005 27.9639 14.3781 27.8677C14.1829 27.7143 13.9314 27.7338 13.7556 27.916ZM15.0661 27.9285C14.8959 28.1802 14.9244 28.4188 15.1462 28.5996C15.3898 28.7982 15.4824 28.7995 15.7044 28.6078L15.88 28.4562L15.5967 28.4536C15.4272 28.452 15.3318 28.42 15.3593 28.3739C15.3846 28.3315 15.5204 28.2968 15.6612 28.2968C15.9649 28.2968 15.9941 28.1673 15.7451 27.9247C15.5207 27.7062 15.215 27.7079 15.0661 27.9285ZM21.2425 27.8222C21.2212 27.858 21.2691 28.0657 21.3489 28.2835L21.4941 28.6798L21.309 28.8056C21.2071 28.8748 21.1238 28.9621 21.1238 28.9996C21.1238 29.1212 21.4692 29.0718 21.5899 28.9329C21.7205 28.7825 22.0164 28.0451 22.0164 27.8699C22.0164 27.6756 21.8767 27.7465 21.7469 28.0067L21.6224 28.2563L21.5083 28.0067C21.3939 27.7561 21.3147 27.7011 21.2425 27.8222ZM22.7332 27.8732C22.5482 28.0649 22.5156 28.2899 22.6434 28.4921C22.9111 28.9156 23.504 28.7616 23.504 28.2684C23.504 28.1182 23.4477 27.9596 23.3679 27.8847C23.1983 27.7255 22.8812 27.7198 22.7332 27.8732ZM24.1525 27.8045C24.123 27.835 24.099 28.0094 24.099 28.1923C24.099 28.4566 24.135 28.549 24.2749 28.6441C24.652 28.9001 25.0405 28.4356 24.8821 27.918C24.8018 27.6559 24.7066 27.7332 24.653 28.1041C24.6139 28.3743 24.5718 28.451 24.4624 28.451C24.3602 28.451 24.3207 28.3934 24.3169 28.239C24.3102 27.9674 24.2215 27.733 24.1525 27.8045ZM25.4875 27.8085C25.4152 27.8834 25.4289 28.5483 25.5053 28.6733C25.5526 28.7508 25.5844 28.7085 25.6213 28.5191C25.7127 28.0499 25.7383 28.0044 25.9426 27.9487C26.1288 27.8979 26.1329 27.8888 25.9957 27.8308C25.8094 27.7521 25.5527 27.7408 25.4875 27.8085ZM28.5618 28.2647C28.5618 28.6363 28.5867 28.7637 28.6548 28.7405C28.7124 28.7207 28.7562 28.5274 28.7699 28.2329C28.7879 27.8449 28.7708 27.7571 28.677 27.7571C28.5846 27.7571 28.5618 27.8579 28.5618 28.2647ZM30.942 27.9113C30.743 28.1175 30.7545 28.3408 30.9758 28.5701C31.174 28.7756 31.3185 28.8035 31.5419 28.6796C31.7666 28.555 31.7115 28.451 31.4211 28.451C31.2635 28.451 31.1749 28.4198 31.2023 28.3739C31.2276 28.3315 31.3657 28.2968 31.5092 28.2968C31.745 28.2968 31.7654 28.2801 31.7204 28.1233C31.6134 27.7497 31.2051 27.6385 30.942 27.9113ZM5.7271 28.0655C5.63502 28.1272 5.64149 28.1395 5.76429 28.136C5.84611 28.1337 5.97999 28.102 6.06181 28.0655C6.19807 28.0048 6.19495 27.9989 6.02462 27.995C5.92235 27.9926 5.78846 28.0244 5.7271 28.0655ZM9.59829 28.0997C9.46255 28.2694 9.55827 28.451 9.78342 28.451C9.95018 28.451 9.97346 28.4221 9.95308 28.2397C9.92623 27.998 9.73887 27.9242 9.59829 28.0997ZM11.1569 28.0655C11.1569 28.1079 11.2238 28.1426 11.3056 28.1426C11.3874 28.1426 11.4544 28.1079 11.4544 28.0655C11.4544 28.0231 11.3874 27.9884 11.3056 27.9884C11.2238 27.9884 11.1569 28.0231 11.1569 28.0655ZM15.3221 28.0655C15.4244 28.0994 15.5583 28.1302 15.6197 28.1337C15.7188 28.1395 15.7188 28.132 15.6197 28.0655C15.5583 28.0244 15.4244 27.9937 15.3221 27.9973L15.1362 28.0037L15.3221 28.0655ZM17.6775 28.0398C17.6502 28.068 17.6279 28.1721 17.6279 28.2711C17.6279 28.4122 17.6685 28.451 17.8162 28.451C17.9198 28.451 18.0239 28.3985 18.0477 28.3344C18.1248 28.1261 17.8247 27.8873 17.6775 28.0398ZM22.9123 28.0997C22.7773 28.2684 22.8736 28.4669 23.076 28.4371C23.1986 28.4191 23.2436 28.361 23.2436 28.2208C23.2436 27.9958 23.0517 27.9257 22.9123 28.0997ZM29.6136 28.0909C29.4859 28.2505 29.5908 28.451 29.802 28.451C29.9576 28.451 29.9814 28.4194 29.9613 28.2397C29.935 28.0031 29.7479 27.9231 29.6136 28.0909ZM31.2209 28.0394C31.2721 28.0609 31.3558 28.0609 31.4069 28.0394C31.458 28.0181 31.4161 28.0006 31.3139 28.0006C31.2116 28.0006 31.1698 28.0181 31.2209 28.0394Z" fill="url(#paint0_linear_482_1215)"/>
</g>
</g>
<defs>
<linearGradient id="paint0_linear_482_1215" x1="35.7358" y1="15.442" x2="-0.63516" y2="15.442" gradientUnits="userSpaceOnUse">
<stop stop-color="#A56AB7"/>
<stop offset="1" stop-color="#4668DB"/>
</linearGradient>
<clipPath id="clip0_482_1215">
<rect width="36" height="33" fill="white"/>
</clipPath>
</defs>
</svg>
